# xmcd
#
# Track frame offsets: 
#        150
#        19670
#        39272
#        58524
#        77363
#        100418
#        130754
#        145072
#        168588
#        191634
#        204987
#
# Disc length: 3071 seconds
#
# Revision: 0
# Processed by: cddbd v1.5.2PL0 Copyright (c) Steve Scherf et al.
# Submitted via: ExactAudioCopyFreeDBPlugin 1.0
#
DISCID=880bfd0b
DTITLE=Blood Orange - Cupid Deluxe
DYEAR=2013
DGENRE=Pop
TTITLE0=Chamakay
TTITLE1=You're Not Good Enough
TTITLE2=Uncle ACE
TTITLE3=No Right Thing
TTITLE4=It Is What It Is
TTITLE5=Chosen
TTITLE6=Clipped On
TTITLE7=Always Let U Down
TTITLE8=On The Line
TTITLE9=High Street
TTITLE10=Time Will Tell
EXTD=
EXTT0=
EXTT1=
EXTT2=
EXTT3=
EXTT4=
EXTT5=
EXTT6=
EXTT7=
EXTT8=
EXTT9=
EXTT10=
PLAYORDER=
